<svg width="17" height="28" viewBox="0 0 17 28" fill="none" xmlns="http://www.w3.org/2000/svg">
<path d="M5 27L12 27" stroke="#707070" stroke-width="2" stroke-linecap="round"/>
<path d="M8.5 21C8.6743 20.999 8.84314 20.9409 8.97909 20.835C9.27273 20.58 17 14.535 17 8.25C17 6.06196 16.1045 3.96354 14.5104 2.41637C12.9163 0.869194 10.7543 0 8.5 0C6.24566 0 4.08365 0.869194 2.48959 2.41637C0.895533 3.96354 0 6.06196 0 8.25C0 14.535 7.72727 20.58 8.02091 20.835C8.15686 20.9409 8.3257 20.999 8.5 21ZM1.54545 8.25C1.54545 6.45979 2.27816 4.7429 3.58239 3.47703C4.88662 2.21116 6.65554 1.5 8.5 1.5C10.3445 1.5 12.1134 2.21116 13.4176 3.47703C14.7218 4.7429 15.4545 6.45979 15.4545 8.25C15.4545 12.975 10.1459 17.8575 8.5 19.2675C6.85409 17.8575 1.54545 12.975 1.54545 8.25Z" fill="#7B7B7B"/>
<path d="M12.2727 8.99965C12.2727 8.28044 12.0595 7.57739 11.6599 6.97939C11.2603 6.38139 10.6924 5.91531 10.0279 5.64008C9.36348 5.36486 8.63233 5.29284 7.92695 5.43315C7.22156 5.57346 6.57362 5.91979 6.06507 6.42835C5.55651 6.9369 5.21018 7.58484 5.06987 8.29023C4.92956 8.99561 5.00158 9.72676 5.2768 10.3912C5.55203 11.0557 6.01811 11.6236 6.61611 12.0232C7.21411 12.4227 7.91716 12.636 8.63637 12.636C9.60079 12.636 10.5257 12.2529 11.2077 11.5709C11.8896 10.889 12.2727 9.96407 12.2727 8.99965ZM6.45455 8.99965C6.45455 8.56812 6.58251 8.14629 6.82225 7.78749C7.06199 7.4287 7.40274 7.14905 7.80142 6.98391C8.20009 6.81877 8.63879 6.77557 9.06202 6.85975C9.48525 6.94394 9.87401 7.15174 10.1791 7.45687C10.4843 7.762 10.6921 8.15076 10.7763 8.574C10.8604 8.99723 10.8172 9.43592 10.6521 9.83459C10.487 10.2333 10.2073 10.574 9.84852 10.8138C9.48972 11.0535 9.06789 11.1815 8.63637 11.1815C8.05771 11.1815 7.50276 10.9516 7.09359 10.5424C6.68442 10.1333 6.45455 9.5783 6.45455 8.99965Z" fill="#7B7B7B"/>
</svg>
