<svg width="28" height="28" viewBox="0 0 28 28" fill="none" xmlns="http://www.w3.org/2000/svg">
<path d="M25.1961 0C24.5028 0.000677687 23.8346 0.25944 23.321 0.726055C22.8074 1.19267 22.4852 1.83385 22.4169 2.52511C22.3486 3.21638 22.5391 3.90842 22.9514 4.46688C23.3636 5.02535 23.9683 5.41039 24.648 5.54728C25.0312 5.62529 25.4265 5.62187 25.8083 5.53724C26.1901 5.45262 26.55 5.28866 26.8646 5.05597C27.1792 4.82328 27.4416 4.52704 27.6349 4.18638C27.8281 3.84572 27.9479 3.46823 27.9864 3.0783C28.0249 2.68837 27.9814 2.29468 27.8586 1.92266C27.7358 1.55064 27.5365 1.20858 27.2735 0.918574C27.0105 0.628569 26.6898 0.397074 26.3319 0.239049C25.9741 0.0810245 25.5871 -1.47025e-05 25.1961 0.00116859V0ZM14.0189 2.79876C7.84828 2.79876 2.84162 7.81316 2.84162 13.9985C2.84162 16.5016 3.66149 18.8142 5.04698 20.6793L8.06287 17.6573C7.24292 16.3168 6.89723 14.7388 7.08149 13.1774C7.26576 11.616 7.96926 10.1623 9.07864 9.05042C10.188 7.93854 11.6387 7.23328 13.1969 7.04826C14.755 6.86324 16.33 7.20924 17.668 8.03052L20.6839 5.00856C18.7586 3.57028 16.4204 2.79505 14.0189 2.79876ZM22.9896 7.31768L19.9737 10.3408C20.7949 11.6812 21.1415 13.2597 20.9577 14.8217C20.7739 16.3837 20.0704 17.8382 18.9606 18.9504C17.8508 20.0627 16.3995 20.768 14.8407 20.9526C13.2819 21.1371 11.7064 20.7901 10.3685 19.9676L7.35263 22.9872C9.27823 24.4261 11.6168 25.2022 14.0189 25.1994C20.1918 25.1994 25.1949 20.1861 25.1949 13.9997C25.1949 11.4965 24.3739 9.18392 22.9896 7.31768ZM2.7938 22.3971C2.10026 22.3978 1.43173 22.6567 0.917974 23.1235C0.404221 23.5904 0.0819073 24.2318 0.0136025 24.9234C-0.0547022 25.615 0.135875 26.3073 0.548339 26.8659C0.960802 27.4246 1.56572 27.8098 2.24567 27.9467C2.69713 28.0361 3.16361 28.0127 3.60389 27.8786C4.04417 27.7444 4.44468 27.5036 4.77002 27.1775C5.09537 26.8514 5.33552 26.45 5.46926 26.0088C5.60299 25.5676 5.62619 25.1001 5.5368 24.6478C5.40914 24.0131 5.06618 23.4423 4.56617 23.0323C4.06617 22.6222 3.43993 22.397 2.7938 22.3971Z" fill="black"/>
</svg>
