<svg width="17" height="17" viewBox="0 0 17 17" fill="none" xmlns="http://www.w3.org/2000/svg">
<path d="M8.5 11.5C10.1569 11.5 11.5 10.1569 11.5 8.5C11.5 6.84314 10.1569 5.5 8.5 5.5C6.84314 5.5 5.5 6.84314 5.5 8.5C5.5 10.1569 6.84314 11.5 8.5 11.5Z" stroke="#7B7B7B" stroke-linecap="round" stroke-linejoin="round"/>
<path d="M11.5 8.49953V9.24953C11.5 9.84627 11.7371 10.4186 12.159 10.8405C12.581 11.2625 13.1533 11.4995 13.75 11.4995C14.3467 11.4995 14.919 11.2625 15.341 10.8405C15.7629 10.4186 16 9.84627 16 9.24953V8.49953C15.9999 6.8068 15.4272 5.16389 14.375 3.83793C13.3227 2.51197 11.8529 1.58095 10.2045 1.19626C8.55605 0.811562 6.82595 0.995816 5.29552 1.71906C3.76508 2.4423 2.5243 3.662 1.77495 5.17982C1.0256 6.69765 0.811732 8.42433 1.16813 10.0791C1.52453 11.7339 2.43024 13.2195 3.73798 14.2942C5.04572 15.369 6.67858 15.9698 8.37106 15.9989C10.0635 16.028 11.7161 15.4837 13.06 14.4545" stroke="#7B7B7B" stroke-linecap="round" stroke-linejoin="round"/>
</svg>
