<svg width="199" height="60" viewBox="0 0 199 60" fill="none" xmlns="http://www.w3.org/2000/svg">
<path fill-rule="evenodd" clip-rule="evenodd" d="M0 0H59.5451V59.5358H0V0Z" fill="#FEFEFE"/>
<path fill-rule="evenodd" clip-rule="evenodd" d="M2.50488 57.0397V45.2848V42.7799V31.0249H14.2601H28.52V42.7799H14.2601V45.2848H28.52V57.0397H14.2601H2.50488Z" fill="#9EADBB"/>
<path fill-rule="evenodd" clip-rule="evenodd" d="M31.0254 42.7799V31.0249H38.1552H49.9101H57.0402V42.7799H49.9101V57.0397H38.1552V42.7799H31.0254Z" fill="#607080"/>
<path d="M69.9199 41.3897V38.6063H80.6814V41.3897H76.7851V51.5941H73.8165V41.3897H69.9199ZM82.5367 51.5941V38.6063H90.2365V41.3897H85.5053V43.6718H89.68V46.4548H85.5053V48.811H90.4223V51.5941H82.5367ZM103.874 38.6063L99.7177 44.9706L104.041 51.5941H100.553L97.7695 47.2342L95.0235 51.5941H91.5355L95.8584 44.9706L91.7395 38.6063H95.2276L97.8624 42.7811L100.386 38.6063H103.874ZM113.41 51.5941V46.3619H108.679V51.5941H105.711V38.6063H108.679V43.5789H113.41V38.6063H116.379V51.5941H113.41ZM118.791 45.1002C118.791 43.1832 119.431 41.5844 120.711 40.3042C121.992 39.0239 123.652 38.3838 125.693 38.3838C127.709 38.3838 129.364 38.9961 130.656 40.2205C131.949 41.4452 132.595 43.0718 132.595 45.1002C132.595 47.0545 131.943 48.6626 130.638 49.9243C129.333 51.1861 127.684 51.8169 125.693 51.8169C123.677 51.8169 122.023 51.2046 120.73 49.9802C119.437 48.7555 118.791 47.1289 118.791 45.1002ZM121.945 45.1002C121.945 46.2138 122.31 47.1474 123.04 47.9021C123.769 48.6567 124.654 49.0339 125.693 49.0339C126.881 49.0339 127.802 48.666 128.458 47.9298C129.113 47.1937 129.441 46.2508 129.441 45.1002C129.441 43.9375 129.082 42.9915 128.365 42.2616C127.647 41.5319 126.757 41.1668 125.693 41.1668C124.605 41.1668 123.708 41.5289 123.003 42.2523C122.298 42.9758 121.945 43.9252 121.945 45.1002ZM141.965 51.5941V41.3897H139.108L138.829 43.8388C138.631 45.5332 138.384 46.9218 138.087 48.0042C137.79 49.0863 137.41 49.9089 136.946 50.4716C136.482 51.0345 135.972 51.3962 135.415 51.5571C134.859 51.7179 134.179 51.7302 133.375 51.5941L133.43 48.6255C133.678 48.6752 133.894 48.6752 134.079 48.6255C134.265 48.5762 134.469 48.4184 134.692 48.1524C134.914 47.8866 135.109 47.4968 135.276 46.9836C135.443 46.4703 135.604 45.7249 135.758 44.7477C135.913 43.7709 136.04 42.5894 136.139 41.2042L136.325 38.6063H144.934V51.5941H141.965ZM147.345 45.1002C147.345 43.1832 147.985 41.5844 149.266 40.3042C150.546 39.0239 152.206 38.3838 154.248 38.3838C156.264 38.3838 157.918 38.9961 159.211 40.2205C160.503 41.4452 161.149 43.0718 161.149 45.1002C161.149 47.0545 160.497 48.6626 159.192 49.9243C157.887 51.1861 156.239 51.8169 154.248 51.8169C152.231 51.8169 150.577 51.2046 149.284 49.9802C147.992 48.7555 147.345 47.1289 147.345 45.1002ZM150.5 45.1002C150.5 46.2138 150.864 47.1474 151.594 47.9021C152.324 48.6567 153.208 49.0339 154.248 49.0339C155.435 49.0339 156.357 48.666 157.012 47.9298C157.668 47.1937 157.995 46.2508 157.995 45.1002C157.995 43.9375 157.636 42.9915 156.919 42.2616C156.202 41.5319 155.311 41.1668 154.248 41.1668C153.159 41.1668 152.262 41.5289 151.557 42.2523C150.852 42.9758 150.5 43.9252 150.5 45.1002ZM163.562 51.5941V38.6063H170.983V41.3897H166.53V51.5941H163.562ZM175.622 51.5941H173.024V38.6063H175.993V46.6774L181.744 38.6063H184.342V51.5941H181.373V43.5233L175.622 51.5941ZM190.279 51.5941H187.682V38.6063H190.65V46.6774L196.402 38.6063H199V51.5941H196.031V43.5233L190.279 51.5941Z" fill="#EC6A1F"/>
<path fill-rule="evenodd" clip-rule="evenodd" d="M2.50488 2.50537H14.2601H16.7648H28.52V14.2603V28.5202H16.7648V14.2603H14.2601V28.5202H2.50488V14.2603V2.50537Z" fill="#607080"/>
<path fill-rule="evenodd" clip-rule="evenodd" d="M57.0402 28.5204H45.2853H42.7803H31.0254V16.7655V2.50562H42.7803V16.7655H45.2853V2.50562H57.0402V16.7655V28.5204Z" fill="#9EADBB"/>
<path fill-rule="evenodd" clip-rule="evenodd" d="M57.0401 28.5203H45.2852L57.0401 16.7654V28.5203Z" fill="#EC6A1F"/>
<path d="M74.4365 15.7856V9.65237H71.7045V15.7856H69.9199V7.97951H76.2204V15.7856H74.4365ZM80.0121 15.7856H78.2278V7.97951C78.3617 7.97951 78.7389 7.97586 79.3596 7.96856C79.9804 7.96099 80.3985 7.95734 80.6141 7.95734C81.7217 7.95734 82.5249 8.20093 83.0228 8.68783C83.5209 9.17474 83.7698 9.79353 83.7698 10.5445C83.7698 11.273 83.506 11.8918 82.9781 12.4012C82.4505 12.9103 81.7518 13.1651 80.8818 13.1651C80.4878 13.1651 80.1979 13.1539 80.0121 13.1317V15.7856ZM80.7925 9.6302C80.7628 9.6302 80.5027 9.6375 80.0121 9.65237V11.4364C80.2944 11.4737 80.5658 11.4922 80.826 11.4922C81.1086 11.4922 81.3538 11.4178 81.562 11.2694C81.7703 11.1207 81.8744 10.8751 81.8744 10.5333C81.8744 9.93133 81.5138 9.6302 80.7925 9.6302ZM86.7807 15.7856H85.2196V7.97951H87.0038V12.8306L90.4607 7.97951H92.0222V15.7856H90.2376V10.9349L86.7807 15.7856ZM94.0292 15.7632V8.00196C94.8989 7.95734 95.6872 7.93489 96.3933 7.93489C97.2779 7.93489 97.936 8.11337 98.3673 8.47034C98.7983 8.82703 99.0139 9.29541 99.0139 9.8752C99.0139 10.6486 98.7167 11.2284 98.1217 11.6151V11.6373C98.4414 11.7563 98.7071 11.9662 98.919 12.2673C99.1309 12.5685 99.237 12.9532 99.237 13.4213C99.237 14.2096 98.9636 14.8079 98.4173 15.2168C97.8709 15.6257 97.1555 15.8303 96.2707 15.8303C95.2374 15.8303 94.49 15.8078 94.0292 15.7632ZM96.5047 12.6296H95.8135V14.0906C95.9768 14.1352 96.1778 14.1574 96.4155 14.1574C97.107 14.1574 97.4527 13.8824 97.4527 13.3323C97.4527 12.864 97.1367 12.6296 96.5047 12.6296ZM96.3709 9.60776C96.267 9.60776 96.0812 9.62262 95.8135 9.65237V11.0685H96.4045C96.9546 11.0685 97.2296 10.8159 97.2296 10.3102C97.2296 10.0871 97.146 9.91448 96.9787 9.79157C96.8115 9.66893 96.6088 9.60776 96.3709 9.60776ZM100.352 11.8826C100.352 10.7303 100.737 9.7694 101.506 8.9999C102.276 8.2304 103.274 7.84565 104.5 7.84565C105.712 7.84565 106.706 8.21384 107.483 8.94994C108.26 9.68577 108.649 10.6632 108.649 11.8826C108.649 13.0573 108.256 14.0235 107.472 14.7821C106.688 15.5401 105.697 15.9192 104.5 15.9192C103.289 15.9192 102.294 15.5513 101.517 14.8155C100.74 14.0794 100.352 13.1019 100.352 11.8826ZM102.248 11.8826C102.248 12.5516 102.467 13.1129 102.906 13.5664C103.344 14.0199 103.876 14.2466 104.5 14.2466C105.214 14.2466 105.768 14.0255 106.162 13.5832C106.556 13.1409 106.753 12.5741 106.753 11.8826C106.753 11.1838 106.537 10.615 106.106 10.1763C105.675 9.73769 105.14 9.51851 104.5 9.51851C103.846 9.51851 103.307 9.736 102.883 10.171C102.46 10.6057 102.248 11.1762 102.248 11.8826ZM114.28 15.7856V9.65237H112.563L112.395 11.1243C112.276 12.1427 112.128 12.9773 111.949 13.6278C111.771 14.2784 111.542 14.7728 111.264 15.1107C110.985 15.4492 110.678 15.6667 110.344 15.7632C110.009 15.86 109.6 15.8673 109.117 15.7856L109.15 14.0014C109.299 14.0311 109.429 14.0311 109.541 14.0014C109.652 13.9716 109.775 13.8768 109.909 13.7171C110.043 13.5571 110.16 13.3231 110.26 13.0144C110.36 12.706 110.457 12.2581 110.55 11.6707C110.643 11.0833 110.719 10.3736 110.779 9.54096L110.89 7.97951H116.064V15.7856H114.28ZM119.9 11.7153L117.191 7.97951H119.242L121.606 11.392V7.97951H123.391V11.392L125.755 7.97951H127.806L125.097 11.7044L127.929 15.7856H125.877L123.391 12.0498V15.7856H121.606V12.0498L119.12 15.7856H117.068L119.9 11.7153ZM133.928 13.6778L134.609 15.0161C134.371 15.2836 134.018 15.5011 133.549 15.6683C133.081 15.8356 132.587 15.9192 132.066 15.9192C130.855 15.9192 129.869 15.5496 129.111 14.8099C128.353 14.0701 127.974 13.0944 127.974 11.8826C127.974 10.7081 128.331 9.74162 129.044 8.98334C129.758 8.22507 130.762 7.84565 132.055 7.84565C132.553 7.84565 133.014 7.92198 133.438 8.07436C133.862 8.22675 134.196 8.42207 134.441 8.65977L133.65 9.99812C133.122 9.67847 132.59 9.51851 132.055 9.51851C131.423 9.51851 130.901 9.72674 130.488 10.1429C130.076 10.5594 129.869 11.1392 129.869 11.8826C129.869 12.5741 130.089 13.1409 130.527 13.5832C130.966 14.0255 131.535 14.2466 132.234 14.2466C132.858 14.2466 133.423 14.0572 133.928 13.6778ZM135.835 15.7856V7.97951H137.62V11.3808L140.173 7.97951H142.314L139.382 11.5815L142.549 15.7856H140.285L137.62 12.0723V15.7856H135.835ZM145.113 15.7856H143.552V7.97951H145.337V12.8306L148.793 7.97951H150.355V15.7856H148.57V10.9349L145.113 15.7856ZM153.923 15.7856H152.362V7.97951H154.146V12.8306L157.603 7.97951H159.164V15.7856H157.38V10.9349L153.923 15.7856ZM153.589 5.97241H155.261C155.261 6.18064 155.313 6.32545 155.417 6.4074C155.521 6.48906 155.7 6.53003 155.952 6.53003C156.183 6.53003 156.348 6.49271 156.449 6.41834C156.549 6.34425 156.599 6.19552 156.599 5.97241H158.272C158.279 6.50758 158.069 6.93891 157.642 7.26585C157.214 7.59307 156.651 7.75668 155.952 7.75668C155.209 7.75668 154.629 7.59476 154.213 7.27147C153.797 6.94818 153.589 6.51516 153.589 5.97241ZM163.402 15.7856V7.97951H165.186V14.1128H167.862V7.97951H169.647V14.1128H170.706V17.1237H169.033V15.7856H163.402ZM171.932 15.7856V7.97951H176.56V9.65237H173.717V11.0238H176.226V12.6967H173.717V14.1128H176.672V15.7856H171.932ZM182.972 15.7856V12.6409H180.129V15.7856H178.344V7.97951H180.129V10.9683H182.972V7.97951H184.756V15.7856H182.972ZM185.871 9.65237V7.97951H192.339V9.65237H189.997V15.7856H188.213V9.65237H185.871ZM195.239 15.7856H193.454V7.97951C193.588 7.97951 193.966 7.97586 194.586 7.96856C195.207 7.96099 195.625 7.95734 195.841 7.95734C196.948 7.95734 197.752 8.20093 198.249 8.68783C198.748 9.17474 198.996 9.79353 198.996 10.5445C198.996 11.273 198.733 11.8918 198.205 12.4012C197.677 12.9103 196.978 13.1651 196.108 13.1651C195.714 13.1651 195.425 13.1539 195.239 13.1317V15.7856ZM196.019 9.6302C195.989 9.6302 195.729 9.6375 195.239 9.65237V11.4364C195.521 11.4737 195.792 11.4922 196.053 11.4922C196.335 11.4922 196.58 11.4178 196.789 11.2694C196.997 11.1207 197.101 10.8751 197.101 10.5333C197.101 9.93133 196.74 9.6302 196.019 9.6302Z" fill="#A5A5A5"/>
<path d="M78.392 29.6723L79.3596 31.5761C79.0212 31.9567 78.5188 32.2662 77.8526 32.5042C77.1861 32.7422 76.4828 32.8612 75.7422 32.8612C74.0183 32.8612 72.6168 32.335 71.5381 31.2826C70.4593 30.2299 69.9199 28.8419 69.9199 27.118C69.9199 25.4468 70.4276 24.0717 71.4429 22.9929C72.4583 21.9139 73.8861 21.3745 75.7265 21.3745C76.4351 21.3745 77.091 21.4831 77.6938 21.6998C78.2966 21.9167 78.7725 22.1942 79.1216 22.5327L77.9955 24.4368C77.2445 23.9819 76.4882 23.7543 75.7265 23.7543C74.8277 23.7543 74.0846 24.0506 73.4975 24.6428C72.9104 25.2352 72.6168 26.06 72.6168 27.118C72.6168 28.1016 72.9289 28.9082 73.553 29.5373C74.1771 30.1668 74.9862 30.4814 75.9802 30.4814C76.869 30.4814 77.6727 30.2114 78.392 29.6723ZM79.8356 23.9449V21.5651H89.0376V23.9449H85.7059V32.6706H83.1676V23.9449H79.8356ZM93.1626 32.6706H90.6243V21.5651C90.8146 21.5651 91.3514 21.5597 92.2346 21.5491C93.1178 21.5384 93.7127 21.5334 94.0192 21.5334C95.5952 21.5334 96.7377 21.8797 97.4463 22.5725C98.1549 23.2651 98.5093 24.1458 98.5093 25.2139C98.5093 26.2505 98.1338 27.1312 97.3825 27.8555C96.6318 28.5801 95.6376 28.9424 94.4003 28.9424C93.8395 28.9424 93.427 28.9267 93.1626 28.8947V32.6706ZM94.2731 23.9131C94.2307 23.9131 93.8606 23.9238 93.1626 23.9449V26.4832C93.5645 26.5362 93.9507 26.5626 94.3208 26.5626C94.7227 26.5626 95.0718 26.4568 95.3679 26.2452C95.6639 26.0339 95.8121 25.6848 95.8121 25.1982C95.8121 24.3414 95.2991 23.9131 94.2731 23.9131ZM99.7783 27.118C99.7783 25.4785 100.326 24.1113 101.42 23.0168C102.515 21.922 103.935 21.3745 105.68 21.3745C107.404 21.3745 108.819 21.8982 109.924 22.9452C111.03 23.9923 111.582 25.3834 111.582 27.118C111.582 28.7892 111.024 30.164 109.908 31.2428C108.793 32.3218 107.383 32.8612 105.68 32.8612C103.956 32.8612 102.541 32.3375 101.436 31.2905C100.331 30.2434 99.7783 28.8523 99.7783 27.118ZM102.476 27.118C102.476 28.0696 102.788 28.8683 103.411 29.5135C104.036 30.1587 104.792 30.4814 105.68 30.4814C106.696 30.4814 107.484 30.1668 108.044 29.5373C108.605 28.9082 108.885 28.1016 108.885 27.118C108.885 26.1237 108.578 25.3143 107.965 24.6905C107.352 24.0664 106.59 23.7543 105.68 23.7543C104.75 23.7543 103.983 24.0638 103.38 24.6826C102.777 25.3014 102.476 26.113 102.476 27.118ZM115.866 32.6706H113.645V21.5651H116.183V28.4664L121.101 21.5651H123.322V32.6706H120.784V25.7693L115.866 32.6706ZM124.909 23.9449V21.5651H134.111V23.9449H130.779V32.6706H128.241V23.9449H124.909ZM135.698 32.6706V21.5651H142.282V23.9449H138.236V25.8964H141.806V28.2762H138.236V30.2908H142.44V32.6706H135.698ZM151.055 32.6706V23.9449H148.612L148.374 26.0389C148.205 27.4881 147.993 28.6752 147.739 29.6008C147.485 30.5263 147.16 31.2296 146.764 31.7109C146.367 32.1921 145.931 32.5014 145.455 32.6389C144.979 32.7764 144.397 32.7871 143.709 32.6706L143.757 30.1323C143.968 30.1747 144.154 30.1747 144.313 30.1323C144.471 30.0899 144.646 29.9552 144.836 29.7276C145.026 29.5003 145.193 29.1672 145.336 28.7283C145.479 28.2894 145.616 27.652 145.748 26.8166C145.88 25.9808 145.989 24.9708 146.073 23.7863L146.232 21.5651H153.594V32.6706H151.055ZM159.749 27.356C159.591 27.356 159.337 27.3823 158.988 27.4351V30.2591C159.369 30.3015 159.617 30.3228 159.733 30.3228C160.897 30.3228 161.479 29.8098 161.479 28.7838C161.479 27.8316 160.902 27.356 159.749 27.356ZM158.988 21.5651V25.0393C159.337 24.9972 159.665 24.9759 159.971 24.9759C161.378 24.9759 162.431 25.3065 163.129 25.9677C163.827 26.6286 164.176 27.5462 164.176 28.7201C164.176 29.9367 163.763 30.9043 162.938 31.6236C162.113 32.3428 160.944 32.7026 159.432 32.7026C159.009 32.7026 158.451 32.6973 157.758 32.6866C157.065 32.676 156.629 32.6706 156.449 32.6706V21.5651H158.988ZM172.822 32.6706V28.1967H168.777V32.6706H166.238V21.5651H168.777V25.817H172.822V21.5651H175.361V32.6706H172.822ZM186.863 32.6706V21.5651H189.402V32.6706H186.863ZM181.517 27.356C181.358 27.356 181.104 27.3823 180.755 27.4351V30.2591C181.136 30.3015 181.384 30.3228 181.501 30.3228C182.559 30.3228 183.087 29.8098 183.087 28.7838C183.087 28.3076 182.947 27.9506 182.667 27.7126C182.387 27.475 182.003 27.356 181.517 27.356ZM180.755 21.5651V25.0393C181.104 24.9972 181.432 24.9759 181.739 24.9759C183.071 24.9759 184.079 25.3093 184.761 25.9755C185.443 26.642 185.784 27.5566 185.784 28.7201C185.784 29.926 185.382 30.8911 184.579 31.6157C183.775 32.34 182.648 32.7026 181.199 32.7026C180.776 32.7026 180.218 32.6973 179.525 32.6866C178.833 32.676 178.396 32.6706 178.217 32.6706V21.5651H180.755ZM192.258 32.6706V21.5651H198.842V23.9449H194.796V25.8964H198.366V28.2762H194.796V30.2908H199V32.6706H192.258Z" fill="#EC6A1F"/>
</svg>
