<svg width="19" height="19" viewBox="0 0 19 19" fill="none" xmlns="http://www.w3.org/2000/svg">
<path d="M17.3 10.4579C17.048 10.3794 16.7752 10.4036 16.5411 10.5254C16.3069 10.6471 16.1304 10.8565 16.05 11.1079C15.5776 12.5524 14.6566 13.8084 13.421 14.6933C12.1854 15.5782 10.6997 16.0457 9.18 16.0279C7.30035 16.0493 5.48894 15.3243 4.14297 14.0121C2.79701 12.6999 2.02635 10.9075 2 9.02789C2.02635 7.1483 2.79701 5.35587 4.14297 4.04365C5.48894 2.73143 7.30035 2.00652 9.18 2.02789C10.8776 2.02379 12.5229 2.6147 13.83 3.69789L11.66 3.33789C11.5299 3.31649 11.3969 3.32101 11.2686 3.35119C11.1403 3.38138 11.0193 3.43662 10.9124 3.51376C10.8055 3.59089 10.715 3.68839 10.6459 3.80065C10.5768 3.91291 10.5307 4.03772 10.51 4.16789C10.4886 4.29794 10.4931 4.43094 10.5233 4.55924C10.5535 4.68754 10.6087 4.80861 10.6859 4.91548C10.763 5.02236 10.8605 5.11293 10.9728 5.18199C11.085 5.25105 11.2098 5.29723 11.34 5.31789L15.58 6.01789H15.75C15.866 6.01775 15.981 5.99745 16.09 5.95789C16.1266 5.94399 16.1605 5.92367 16.19 5.89789C16.2617 5.87123 16.3291 5.83417 16.39 5.78789L16.48 5.67789C16.48 5.62789 16.57 5.58789 16.61 5.52789C16.65 5.46789 16.61 5.42789 16.66 5.38789C16.6876 5.32965 16.711 5.2695 16.73 5.20789L17.48 1.20789C17.505 1.07657 17.5038 0.941618 17.4766 0.810744C17.4494 0.67987 17.3967 0.555635 17.3215 0.445133C17.2462 0.334632 17.15 0.240027 17.0382 0.16672C16.9264 0.0934138 16.8013 0.0428412 16.67 0.01789C16.5387 -0.00706116 16.4037 -0.00590227 16.2729 0.0213006C16.142 0.0485034 16.0177 0.101217 15.9072 0.176433C15.6841 0.328337 15.5304 0.562673 15.48 0.82789L15.21 2.27789C13.536 0.827131 11.3952 0.0283207 9.18 0.02789C6.76993 0.00655726 4.44984 0.942186 2.7288 2.62947C1.00777 4.31676 0.0263909 6.61787 0 9.02789C0.0263909 11.4379 1.00777 13.739 2.7288 15.4263C4.44984 17.1136 6.76993 18.0492 9.18 18.0279C11.1331 18.0579 13.0443 17.46 14.6321 16.3223C16.2199 15.1845 17.4005 13.567 18 11.7079C18.0379 11.5799 18.0498 11.4455 18.035 11.3128C18.0202 11.1801 17.9789 11.0517 17.9137 10.9352C17.8485 10.8187 17.7605 10.7164 17.6551 10.6345C17.5497 10.5525 17.429 10.4924 17.3 10.4579Z" fill="#5A6775"/>
</svg>
