<svg width="10" height="10" viewBox="0 0 10 10" fill="none" xmlns="http://www.w3.org/2000/svg">
<path d="M0.500074 9.06842C0.405074 9.06842 0.310074 9.04132 0.228074 8.98712C0.0850741 8.89472 7.43968e-05 8.73612 7.43968e-05 8.56642V2.57342C7.43968e-05 2.29632 0.224074 2.07142 0.500074 2.07142C0.776074 2.07142 1.00007 2.29632 1.00007 2.57342V7.79332L8.26907 4.55042L0.297074 0.993144C0.0450743 0.880694 -0.0689254 0.583504 0.0430746 0.330494C0.155075 0.077484 0.451074 -0.0369761 0.703074 0.0754739L9.70307 4.09152C9.88407 4.17282 10.0001 4.35162 10.0001 4.55042C10.0001 4.74912 9.88407 4.92792 9.70307 5.00922L0.703074 9.02532C0.638074 9.05442 0.569074 9.06842 0.500074 9.06842Z" fill="white"/>
</svg>
