<svg width="20" height="21" viewBox="0 0 20 21" fill="none" xmlns="http://www.w3.org/2000/svg">
<path d="M18.4428 6.41249C17.9824 5.39523 17.3216 4.48192 16.4825 3.69484C15.6435 2.91519 14.6707 2.29889 13.5867 1.86823C12.4654 1.42271 11.2774 1.19995 10.0522 1.19995C8.82705 1.19995 7.639 1.42271 6.51779 1.86823C5.4337 2.29889 4.46099 2.90776 3.62193 3.69484C2.78288 4.48192 2.12204 5.39523 1.66167 6.41249C1.18645 7.46688 0.941406 8.59552 0.941406 9.75386C0.941406 11.781 1.69878 13.7264 3.0873 15.2708L2.34477 19.3176L6.29503 17.5578C7.47565 18.0627 8.73052 18.3152 10.0448 18.3152C11.27 18.3152 12.458 18.0924 13.5792 17.6469C14.6633 17.2162 15.636 16.6074 16.4751 15.8203C17.3141 15.0332 17.975 14.1199 18.4353 13.1026C18.9106 12.0483 19.1556 10.9196 19.1556 9.76128C19.163 8.59551 18.918 7.4743 18.4428 6.41249Z" stroke="#323232"/>
<path d="M13.7498 11.4616C13.3637 11.2685 13.0816 11.1497 12.8811 11.0755C12.7549 11.0309 12.4579 10.8973 12.3539 10.9789C12.0272 11.2463 11.6782 12.0036 11.3069 12.1447C10.3862 11.9665 9.53231 11.3354 8.86403 10.6894C8.56702 10.4072 8.01755 9.60527 7.89875 9.38994C7.87647 9.16718 8.27742 8.87017 8.36653 8.69939C8.82689 8.17962 8.47792 7.85291 8.41852 7.63757C8.31456 7.41482 8.13636 7.01385 7.98043 6.68714C7.84678 6.47181 7.81705 6.15252 7.57944 6.03372C6.5696 5.51395 5.99046 6.55348 5.75285 7.09553C4.31978 10.5483 12.9331 17.1196 14.6854 12.5902C14.7745 12.1967 14.7374 12.0482 14.6037 11.87C14.3364 11.6843 14.0246 11.6027 13.7498 11.4616Z" stroke="#323232"/>
</svg>
