<svg width="24" height="14" viewBox="0 0 24 14" fill="none" xmlns="http://www.w3.org/2000/svg">
<path d="M14.3661 10.0958C14.9344 9.96174 17.0508 11.996 17.6332 12.6982C18.3865 13.5099 18.8409 14 19.7249 14H22.2012C22.8907 14 23.237 13.7356 23.4061 13.5141C24.142 12.3662 22.8086 11.0516 21.3526 9.37009C20.852 8.74307 19.8704 8.05551 19.5344 7.44255C21.294 4.64475 25.1538 0.102246 21.8476 0.000610352H19.3718C18.8645 0.000610352 18.1842 0.171435 17.8211 0.992055C17.8088 1.02129 16.5764 3.91612 14.8905 5.72736C14.4066 6.16288 14.1804 6.44457 14.2212 6.12751V3.03662C14.212 2.39183 13.2135 2.38613 13.2025 3.03662V6.12751C13.2025 6.93676 13.6681 7.30556 14.1009 7.30556C16.2847 7.12363 18.8148 1.23778 18.7606 1.3733C18.8685 1.12899 19.0034 0.987422 19.3713 0.987422H21.8473C22.0433 0.987422 22.1346 1.02166 22.1338 1.00989C22.1386 1.02558 22.1427 1.09513 22.1022 1.226C22.1294 1.40646 21.2963 3.2542 18.8398 6.62974C17.743 7.93428 19.7746 8.9999 20.5813 10.0156C21.1438 10.6629 23.514 13.1622 22.2012 13.0145H19.7249C19.3134 13.0145 19.0929 12.7966 18.3908 12.0399C17.3112 10.7959 15.2791 8.9599 14.3661 9.11079C13.3435 9.11079 13.2025 9.74274 13.2025 10.4257V12.583C13.2025 12.8426 13.2025 13.0145 11.9435 13.0145C9.36183 13.0145 6.69478 11.4547 4.80554 8.83728C1.69502 4.63116 0.992236 1.56695 0.992236 1.17821C0.992236 0.90611 0.764237 0.684986 0.48283 0.684986C-1.03397 0.639705 1.26922 5.74852 3.97353 9.40576C6.0502 12.2823 9.02925 13.9995 11.9431 13.9995C13.3104 13.9995 14.2209 13.7584 14.2209 12.5819V10.4246C14.2419 10.1571 14.173 10.0769 14.3661 10.0958Z" fill="#323232"/>
<path d="M5.39873 1.22645C5.16714 0.633025 4.83411 0 3.80793 0H1.71763C1.05242 0.0106871 1.04469 0.974317 1.71763 0.98644H3.80793C4.1247 0.98644 4.22562 1.01141 4.43999 1.55991C5.40717 4.3134 7.59032 8.29774 9.00764 8.29774C9.97713 8.29774 9.97712 7.35196 9.97712 6.8973L9.97605 3.33843C9.70978 0.243579 6.65475 1.10092 13.1529 0.998563C13.1614 1.01283 13.203 1.09486 13.203 1.36662C13.2122 2.01425 14.2116 2.01461 14.2219 1.36662C14.2219 0.460055 13.8126 0.000354953 13.0053 0.000354953H9.11384C7.89496 0.0470724 7.67427 1.27995 8.37902 1.93473C8.62503 2.23181 8.9042 2.56811 8.95837 3.37025C8.95101 3.54739 8.97787 7.22331 8.93919 7.2749C8.33251 6.93297 6.58032 4.59015 5.39873 1.22645Z" fill="#323232"/>
</svg>
