<svg width="21" height="18" viewBox="0 0 21 18" fill="none" xmlns="http://www.w3.org/2000/svg">
<path d="M20.4456 0.33686C20.0063 -0.00660861 19.4024 -0.0949934 18.8733 0.106692L0.95623 6.92613C0.168079 7.23196 -0.207838 8.08226 0.116565 8.82525C0.284352 9.20952 0.618338 9.50776 1.03436 9.64488L4.89961 10.9117L6.99435 17.4412C6.99856 17.4544 7.0115 17.4626 7.01693 17.4753C7.0386 17.5274 7.07027 17.5753 7.11025 17.6167C7.12514 17.6333 7.14138 17.6489 7.15871 17.6633C7.2109 17.7041 7.27151 17.7343 7.33669 17.7519C7.34664 17.7547 7.35329 17.763 7.36343 17.7652L7.36929 17.765L7.37222 17.7661C7.4056 17.7732 7.43966 17.7766 7.47378 17.7763C7.5184 17.7748 7.56265 17.7675 7.60513 17.7547C7.61337 17.7526 7.62167 17.7531 7.62972 17.7506C7.7023 17.7265 7.76785 17.6869 7.82125 17.6347C7.82748 17.6289 7.83694 17.6278 7.84292 17.6216L10.8566 14.4867L15.2531 17.6962C15.5203 17.8931 15.8496 18.0001 16.1887 18C16.9221 17.9999 17.5551 17.5156 17.7063 16.839L20.969 1.73813C21.0821 1.21576 20.8808 0.677165 20.4456 0.33686ZM8.0881 12.15L7.38088 15.3901L5.90602 10.7915L13.2209 7.20043L8.22384 11.9116C8.15475 11.9768 8.10757 12.0597 8.0881 12.15ZM16.7268 16.6494C16.6885 16.8229 16.5571 16.9652 16.3801 17.025C16.2072 17.0877 16.0118 17.0598 15.8665 16.9514L11.1028 13.474C10.8965 13.3234 10.6022 13.3479 10.427 13.5301L8.33133 15.71L9.03732 12.4787L16.2258 5.70071C16.4212 5.51686 16.4215 5.21856 16.2265 5.03443C16.0723 4.88867 15.8355 4.85426 15.6418 4.94944L5.27846 10.0373L1.36151 8.75367C1.148 8.68744 1.0028 8.5006 1.00018 8.28873C0.989861 8.07536 1.12383 7.8792 1.33416 7.79985L19.2483 0.981333C19.4354 0.90647 19.6514 0.937831 19.8059 1.06235C19.9597 1.17939 20.0304 1.36819 19.9886 1.55031L16.7268 16.6494Z" fill="#323232"/>
</svg>
