<svg width="26" height="26" viewBox="0 0 26 26" fill="none" xmlns="http://www.w3.org/2000/svg">
<path d="M24.9148 17.9122L22.5932 15.5906C21.9012 14.9041 20.9671 14.5171 19.9923 14.5129C19.0175 14.5088 18.0802 14.8879 17.3823 15.5684C17.0099 15.9429 16.5187 16.1759 15.9931 16.2274C15.4675 16.2788 14.9404 16.1454 14.5025 15.8502C12.7742 14.6967 11.2894 13.2148 10.1326 11.4887C9.8426 11.046 9.71406 10.5168 9.76865 9.99027C9.82324 9.46378 10.0576 8.9722 10.4323 8.59834C11.1067 7.89983 11.4809 6.96506 11.4748 5.99412C11.4687 5.02317 11.0828 4.09319 10.3996 3.40322L8.07803 1.08162C7.38297 0.388941 6.44171 0 5.46044 0C4.47917 0 3.5379 0.388941 2.84285 1.08162L2.17487 1.75066C-1.30751 5.23307 -1.04686 12.5546 6.1986 19.7959C10.5674 24.1658 14.9647 25.9956 18.5304 25.9956C19.5801 26.0306 20.6262 25.8563 21.6078 25.4829C22.5894 25.1095 23.4868 24.5444 24.2479 23.8207L24.9169 23.1516C25.6108 22.4563 26.0004 21.5139 26 20.5315C25.9996 19.5491 25.6093 18.607 24.9148 17.9122ZM23.4226 21.6595L22.7536 22.3285C20.0099 25.0723 13.9537 24.571 7.68863 18.3048C1.42352 12.0385 0.921211 5.97809 3.6649 3.23438L4.32867 2.56639C4.62753 2.26861 5.03222 2.10141 5.45411 2.10141C5.876 2.10141 6.28069 2.26861 6.57955 2.56639L8.90113 4.888C9.19456 5.1829 9.36112 5.5808 9.36526 5.9968C9.3694 6.4128 9.2108 6.81394 8.9233 7.11463C8.21023 7.83225 7.76543 8.77312 7.66341 9.77962C7.5614 10.7861 7.80837 11.7971 8.36295 12.6432C9.67733 14.6102 11.3675 16.2979 13.3364 17.6093C14.18 18.164 15.1883 18.4124 16.193 18.3131C17.1977 18.2138 18.1379 17.7728 18.8565 17.0638C19.1566 16.7729 19.5589 16.6113 19.9768 16.6139C20.3948 16.6164 20.7951 16.7829 21.0916 17.0775L23.4132 19.3991C23.5628 19.5466 23.6818 19.7221 23.7633 19.9158C23.8448 20.1094 23.8872 20.3172 23.8881 20.5273C23.889 20.7374 23.8483 20.9456 23.7684 21.1399C23.6885 21.3342 23.571 21.5108 23.4226 21.6595Z" fill="#BDBDBD"/>
</svg>
