<svg width="15" height="15" viewBox="0 0 15 15" fill="none" xmlns="http://www.w3.org/2000/svg">
<path d="M14.3739 10.334L13.0345 8.99458C12.6353 8.59852 12.0964 8.37523 11.534 8.37283C10.9716 8.37044 10.4309 8.58914 10.0283 8.98179C9.81343 9.19785 9.53001 9.33228 9.22678 9.36194C8.92354 9.39161 8.61945 9.31466 8.36682 9.14434C7.36971 8.47889 6.51312 7.62395 5.84575 6.62812C5.67843 6.37267 5.60426 6.06736 5.63576 5.76361C5.66725 5.45987 5.80248 5.17627 6.01865 4.96058C6.40773 4.55759 6.62362 4.0183 6.62009 3.45814C6.61656 2.89798 6.39391 2.36146 5.99978 1.9634L4.6604 0.624009C4.25941 0.224389 3.71637 0 3.15025 0C2.58414 0 2.0411 0.224389 1.64011 0.624009L1.25473 1.01C-0.754333 3.01908 -0.603958 7.24302 3.57611 11.4207C6.09658 13.9418 8.63348 14.9975 10.6906 14.9975C11.2962 15.0176 11.8997 14.9171 12.466 14.7017C13.0323 14.4862 13.5501 14.1602 13.9892 13.7427L14.3751 13.3567C14.7755 12.9555 15.0002 12.4119 15 11.8451C14.9998 11.2783 14.7746 10.7348 14.3739 10.334ZM13.5131 12.4959L13.1271 12.8818C11.5442 14.4648 8.05024 14.1756 4.43575 10.5604C0.821261 6.94531 0.531468 3.4489 2.11437 1.86599L2.49731 1.48061C2.66973 1.30881 2.9032 1.21235 3.1466 1.21235C3.39 1.21235 3.62347 1.30881 3.79589 1.48061L5.13527 2.82C5.30456 2.99013 5.40065 3.21969 5.40303 3.45969C5.40542 3.69969 5.31392 3.93112 5.14805 4.10459C4.73667 4.5186 4.48005 5.06141 4.4212 5.64209C4.36235 6.22276 4.50483 6.80603 4.82478 7.29416C5.58308 8.42893 6.5582 9.40262 7.69409 10.1592C8.18076 10.4792 8.76249 10.6226 9.34211 10.5653C9.92173 10.508 10.4641 10.2536 10.8788 9.84448C11.0519 9.67665 11.284 9.58345 11.5251 9.58493C11.7662 9.58641 11.9971 9.68245 12.1682 9.85239L13.5076 11.1918C13.5939 11.2769 13.6626 11.3782 13.7096 11.4899C13.7566 11.6016 13.7811 11.7215 13.7816 11.8427C13.7821 11.9639 13.7586 12.084 13.7125 12.1961C13.6665 12.3082 13.5987 12.4101 13.5131 12.4959Z" fill="white"/>
</svg>
