<svg width="34" height="34" viewBox="0 0 34 34" fill="none" xmlns="http://www.w3.org/2000/svg">
<path d="M16.54 17.4759V8.7481C16.54 8.34288 16.1871 8 15.77 8C15.3529 8 15 8.34288 15 8.7481V17.7876C15 17.9747 15.0963 18.1929 15.2246 18.3176L21.4167 24.3335C21.5771 24.4894 21.7697 24.5517 21.9622 24.5517C22.1547 24.5517 22.3472 24.4894 22.5076 24.3335C22.7963 24.053 22.7963 23.5543 22.5076 23.2737L16.54 17.4759Z" fill="#EC6A1F"/>
<path d="M17 33C25.8366 33 33 25.8366 33 17C33 8.16344 25.8366 1 17 1C8.16344 1 1 8.16344 1 17C1 25.8366 8.16344 33 17 33Z" stroke="#EC6A1F" stroke-linecap="round" stroke-linejoin="round"/>
</svg>
